<?xml version="1.0" encoding="utf-8"?>
<!-- Generator: Adobe Illustrator 17.1.0, SVG Export Plug-In . SVG Version: 6.00 Build 0)  -->
<!DOCTYPE svg PUBLIC "-//W3C//DTD SVG 1.1//EN" "http://www.w3.org/Graphics/SVG/1.1/DTD/svg11.dtd">
<svg version="1.1" id="Layer_2" xmlns="http://www.w3.org/2000/svg" xmlns:xlink="http://www.w3.org/1999/xlink" x="0px" y="0px"
	 viewBox="0 0 562 548" enable-background="new 0 0 562 548" xml:space="preserve">
<g>
	<rect x="12" y="12" fill="#0D0C3A" width="538" height="524"/>
	<path fill="#2EC9F9" d="M538,24v500H24V24H538 M562,0H0v548h562V0L562,0z"/>
</g>
<g>
	<path fill="#2EC9F9" stroke="#000" d="M142.4,144c16.5-2.8,39.6-4.9,72.1-4.9c32.9,0,56.4,6.3,72.1,18.9
		c15.4,11.9,25.2,31.5,25.2,54.6s-7.3,43.1-21.7,56c-18.2,16.8-45.2,24.9-76.7,24.9c-7,0-13.3-0.3-18.2-1.4v84.7h-52.9V144z
		 M195.3,251.1c4.6,1.1,9.8,1.4,17.9,1.4c28.4,0,45.9-14.4,45.9-38.2c0-21.7-15-34.7-42-34.7c-10.5,0-17.9,0.7-21.7,1.8V251.1z"/>
	<path fill="#2EC9F9" stroke="#000" d="M331.7,337.5c10,5.3,26,10.5,42.3,10.5c17.5,0,26.8-7.3,26.8-18.3
		c0-10.5-8-16.5-28.3-23.5c-28-10-46.5-25.5-46.5-50c0-28.8,24.3-50.5,63.8-50.5c19.3,0,33,3.8,43,8.5l-8.5,30.5
		c-6.5-3.3-18.8-8-35-8c-16.5,0-24.5,7.8-24.5,16.3c0,10.8,9.3,15.5,31.3,23.8c29.8,11,43.5,26.5,43.5,50.3
		c0,28.3-21.5,52.3-67.8,52.3c-19.3,0-38.3-5.3-47.8-10.5L331.7,337.5z"/>
</g>
</svg>
